<?xml version="1.0" encoding="UTF-8"?>
<svg id="Layer_2" data-name="Layer 2" xmlns="http://www.w3.org/2000/svg" viewBox="0 0 40.93 46.77">
  <defs>
    <style>
      .cls-1 {
        fill: #ef4781;
      }

      .cls-2 {
        fill: #fdc116;
      }
    </style>
  </defs>
  <g id="Layer_1-2" data-name="Layer 1">
    <g>
      <path class="cls-1" d="M28.39,1.52C27.62.46,26.33-.12,25.02.02c-2.81.33-4.32,1.94-5.37,3.96-1.1,2.15-1.6,4.46-1.77,6.85-.02.18-.04.37-.06.56-.26-.05-.38-.19-.52-.29-1.96-1.45-4.06-2.64-6.36-3.46-1.83-.66-3.7-1.06-5.67-.88C2.03,7.06-.1,9.32,0,12.37c.06,1.61.77,2.94,1.87,4.08,1.6,1.62,3.59,2.6,5.68,3.4l.43.17c.82.31,1.67.5,2.53.58h.03s.03,0,.05,0l2.37.14,2.08-.89,7.11-2.92c.06-.02.1-.05.16-.07.05-.03.09-.05.14-.06h.02s4.56-1.88,4.56-1.88c0,0,.02,0,.03,0l.69-.29.68-1.8c.02-.06.05-.11.07-.17l.2-.54c.36-1.03.68-2.09.9-3.16.5-2.53.55-5.03-1.22-7.44ZM14.54,17.04c-2.73-.51-5.41-1.21-7.85-2.58-.67-.38-1.29-.8-1.79-1.4-.29-.36-.47-.77-.28-1.24.18-.43.59-.5.99-.54,1.42-.12,2.75.24,4.05.74,2.86,1.09,5.34,2.76,7.47,4.97.07.07.13.14.19.23.03.04.05.08.11.21-1.03-.07-1.97-.21-2.9-.39ZM25.35,6.43c-.11,1.91-.71,3.69-1.44,5.41-.33.79-.63,1.61-1.1,2.32-.08.11-.19.23-.27.3-.14-.64-.16-1.27-.16-1.9,0-2.18.29-4.3,1.22-6.31.21-.45.46-.87.8-1.24.36-.4.64-.34.84.15.16.41.15.84.12,1.26Z"/>
      <path class="cls-2" d="M12.1,28.99l.52-.21h0l8.15-3.21,10.77-4.24,6.39-2.52-1.32-3.36c-.86-2.18-3.32-3.24-5.49-2.39l-18.34,7.22-1.97.98c-1.81.9-2.63,3.04-1.88,4.92l.28.7c.03.07,1.04,2.75,1.04,2.75l1.61-.58c.08-.02.17-.04.25-.07Z"/>
      <path class="cls-1" d="M35.56,26.75h-9.26v4.27c0,1.36,1.11,2.47,2.47,2.47h2.99v.25c0,3.3-1.19,6.11-5.07,6.11-4.55,0-6.28-4.33-6.28-10.48,0-.29,0-.57.01-.85,0,0,0,0,0,0v-.56s-1.34.51-1.34.51l-8.29,2.96c.55,8.3,4.74,15.26,13.87,15.26,4.09,0,7.31-.99,9.1-3.97v1.07c0,1.64,1.33,2.96,2.96,2.96h4.21v-14.64c0-2.97-2.4-5.37-5.37-5.37Z"/>
    </g>
  </g>
</svg>