<?xml version="1.0" encoding="UTF-8"?>
<svg id="Layer_2" xmlns="http://www.w3.org/2000/svg" viewBox="0 0 211 43.42">
  <defs>
    <style>
      .cls-1 {
        fill: #ef3752;
      }

      .cls-2 {
        fill: #ee3450;
      }
    </style>
  </defs>
  <g id="Layer_1-2" data-name="Layer_1">
    <g>
      <path class="cls-1" d="M28.49,13.99v17.28c0,8.38-5.62,12.01-13.41,12.01-5.97,0-10.89-1.12-12.88-1.64h0c0-2.47,2.2-4.35,4.64-3.97,2.1.33,4.52.62,6.91.62,6.18,0,8.49-2.37,8.73-7.65-2.1,2.3-5.55,3.67-10.41,3.67-7.05,0-12.08-3.07-12.08-10.34s5.03-10.34,12.08-10.34c4.89,0,8.35,1.36,10.41,3.67v-3.32h6.01ZM22.49,23.97c0-3.77-2.62-5.34-8.24-5.34s-8.28,1.57-8.28,5.34,2.65,5.34,8.28,5.34,8.24-1.57,8.24-5.34Z"/>
      <path class="cls-1" d="M37.26,13.99v20.57h0c-3.3,0-5.97-2.67-5.97-5.97v-14.6h5.97Z"/>
      <path class="cls-1" d="M50.73,13.99h8.69v4.99h-8.69v15.57h0c-3.32,0-6.01-2.69-6.01-6.01v-9.57h-5.41v-4.99h5.41v-1.54c0-4.19,2.51-6.18,8.52-6.18,2.06,0,3.14,0,6.18.35v4.23c-1.36-.1-2.76-.17-4.3-.17-3.42,0-4.29.73-4.4,3.32Z"/>
      <path class="cls-1" d="M72.56,18.98v5.94c0,3.98.77,4.99,4.4,4.99.3,0,.59,0,.86,0,2.48-.01,4.49,2,4.49,4.47h0c-1.99.35-4.26.52-7.02.52-5.31,0-8.73-1.99-8.73-6.53v-9.39h-5.41v-4.99h5.41v-4.26l6.01-1.71v5.97h9.74v4.99h-9.74Z"/>
      <path class="cls-1" d="M105.83,27.19h5.94c-1.36,5.24-6.46,7.72-14.07,7.72s-13.9-3.07-13.9-10.62,5.9-10.65,14.25-10.65c7.82,0,14.07,2.69,14.07,12.05h-22.21c.66,3.28,3.81,4.36,7.79,4.36s6.63-.77,8.14-2.86ZM90.12,21.88h15.61c-1.01-2.9-3.95-3.7-7.72-3.7-4.09,0-6.95.8-7.89,3.7Z"/>
      <path class="cls-1" d="M135.86,27.19h5.94c-1.36,5.24-6.46,7.72-14.07,7.72s-13.9-3.07-13.9-10.62,5.9-10.65,14.25-10.65c7.82,0,14.07,2.69,14.07,12.05h-22.21c.66,3.28,3.81,4.36,7.79,4.36s6.63-.77,8.14-2.86ZM120.15,21.88h15.61c-1.01-2.9-3.95-3.7-7.72-3.7-4.09,0-6.95.8-7.89,3.7Z"/>
      <path class="cls-1" d="M173.04,23.17l-.07,11.38h0c-3.32,0-6.01-2.69-6.01-6.01v-3.11c0-4.37-1.47-6.63-6.39-6.63-4.02,0-8.35,2.06-10.2,4.23v11.52h-5.97V13.99h2.37c1.99,0,3.6,1.61,3.6,3.6h0c2.93-2.3,6.98-3.95,11.98-3.95,5.48,0,10.61,1.96,10.68,9.53Z"/>
      <path class="cls-2" d="M34.28,2.45c.27-.54.61-1.03,1.05-1.44C36.04.34,36.87-.01,37.84,0c1.72.02,3.21,1.33,3.48,3.03.14.94-.09,1.79-.52,2.61-.43.83-1.02,1.54-1.66,2.21-1.38,1.45-2.94,2.69-4.59,3.83-.25.18-.26.18-.51,0-1.56-1.07-3.05-2.23-4.39-3.57-.76-.76-1.46-1.57-1.95-2.53-.32-.63-.54-1.29-.53-2,.01-1.76,1.38-3.33,3.08-3.53,1.75-.21,3.24.65,3.95,2.28.02.04.01.08.06.11Z"/>
      <path class="cls-1" d="M210.82,13.21c-.46-1.45-1.85-2.45-3.37-2.46-.98,0-1.81.35-2.52,1.01-.44.42-.79.91-1.06,1.46-.05-.02-.05-.07-.07-.11-.72-1.64-2.22-2.51-3.99-2.3-1.72.2-3.09,1.78-3.11,3.56,0,.72.21,1.39.54,2.02.12.24.25.46.4.68-2.09-2.22-5.52-3.53-10.33-3.53-7.11,0-12.18,3.1-12.18,10.42s5.07,10.42,12.18,10.42c4.89,0,8.38-1.37,10.49-3.7-.25,5.32-2.57,7.71-8.8,7.71-2.42,0-4.85-.28-6.97-.62-2.46-.39-4.68,1.51-4.68,4h0c2.01.53,6.97,1.65,12.99,1.65,7.85,0,13.52-3.66,13.52-12.11v-6.57c0-1.24.58-2.4,1.57-3.15l.03-.02.08-.05h0c1.15-.87,2.24-1.81,3.24-2.86.64-.68,1.24-1.39,1.67-2.23.51-1,.76-2.05.38-3.23ZM189.49,29.34c-5.67,0-8.34-1.58-8.34-5.39s2.68-5.39,8.34-5.39,8.31,1.58,8.31,5.39-2.64,5.39-8.31,5.39Z"/>
    </g>
  </g>
</svg>