<?xml version="1.0" encoding="UTF-8"?>
<svg id="Layer_2" xmlns="http://www.w3.org/2000/svg" viewBox="0 0 44.86 44.86">
  <defs>
    <style>
      .cls-1 {
        fill: #fff;
      }

      .cls-2 {
        fill: #ef3752;
      }
    </style>
  </defs>
  <g id="Layer_1-2" data-name="Layer_1">
    <g>
      <circle class="cls-1" cx="22.43" cy="22.43" r="22.43"/>
      <path class="cls-2" d="M37.28,11.78c-.36-1.11-1.42-1.88-2.59-1.89-.75,0-1.39.27-1.94.78-.34.32-.6.7-.81,1.12-.04-.02-.04-.06-.05-.08-.55-1.26-1.7-1.93-3.06-1.77-1.32.16-2.38,1.36-2.39,2.73,0,.55.16,1.06.41,1.55.09.18.2.36.31.52-1.61-1.7-4.24-2.71-7.93-2.71-5.46,0-9.35,2.38-9.35,8s3.89,8,9.35,8c3.76,0,6.43-1.05,8.05-2.84-.19,4.08-1.97,5.92-6.76,5.92-1.85,0-3.72-.22-5.35-.48-1.89-.3-3.59,1.16-3.59,3.07h0c1.54.41,5.35,1.27,9.97,1.27,6.03,0,10.38-2.81,10.38-9.3v-5.04c0-.95.45-1.84,1.21-2.42l.02-.02.06-.04h0c.88-.67,1.72-1.39,2.49-2.19.49-.52.95-1.07,1.29-1.71.39-.76.58-1.57.29-2.48ZM20.9,24.16c-4.35,0-6.4-1.22-6.4-4.13s2.05-4.13,6.4-4.13,6.38,1.22,6.38,4.13-2.03,4.13-6.38,4.13Z"/>
    </g>
  </g>
</svg>